<?xml version="1.0" encoding="UTF-8" standalone="no"?>
<!-- Created with Inkscape (http://www.inkscape.org/) -->

<svg
   width="83.3339mm"
   height="81.537842mm"
   viewBox="0 0 83.3339 81.537842"
   version="1.1"
   id="svg5"
   xml:space="preserve"
   xmlns="http://www.w3.org/2000/svg"
   xmlns:svg="http://www.w3.org/2000/svg"><defs
     id="defs2" /><g
     id="layer1"
     transform="translate(-56.450174,-109.18506)"><ellipse
       style="opacity:1;fill:#ffffff;fill-opacity:1;stroke-width:0.264583"
       id="path8645"
       cx="98.117119"
       cy="149.95398"
       rx="41.666946"
       ry="40.768925" /><g
       id="g8652"><path
         style="fill:#326ce5;fill-opacity:1;stroke-width:0.264583"
         id="path3303"
         d="M 99.227425,172.63164 A 24.441082,20.024965 0 0 1 81.825929,166.943 24.441082,20.024965 0 0 1 74.452977,152.83127 l 24.439571,-0.22272 z" /><ellipse
         style="fill:#000000;stroke-width:0.264583"
         id="path3305"
         cx="98.893303"
         cy="152.83812"
         rx="7.7443976"
         ry="6.9077206" /><path
         style="opacity:1;fill:#000000;stroke-width:0.154842"
         d="m 62.180538,151.39065 c 7.740107,42.23772 10.063843,-5.99184 26.59678,-19.10509 15.950692,-11.52328 44.761362,4.76487 45.276382,18.13138 z"
         id="path3301" /><path
         fill="#000000"
         d="m 98.892906,147.39904 c -0.208326,0 -0.37877,0.32468 -0.37877,0.72505 0,0.19191 0.04026,0.37589 0.11126,0.51138 -0.11126,0.005 -0.213054,0.0263 -0.324322,0.0551 v 0.35913 c 0.404815,-0.0548 0.807258,-0.0523 1.183663,0 v -0.35915 c -0.106531,-0.0306 -0.222526,-0.0478 -0.324321,-0.0551 0.071,-0.1355 0.111259,-0.31947 0.111259,-0.51139 0,-0.40037 -0.170443,-0.72505 -0.378769,-0.72505 z m -4.019007,1.59262 c -0.14796,0.14161 -0.02818,0.48533 0.26751,0.76856 0.143695,0.13594 0.307038,0.24016 0.458552,0.28775 -0.0758,0.0793 -0.132577,0.16313 -0.189389,0.2583 l 0.26751,0.25377 c 0.234364,-0.30362 0.518439,-0.57551 0.83566,-0.79982 l -0.265138,-0.25604 c -0.09943,0.0499 -0.189388,0.11782 -0.269874,0.18126 -0.04968,-0.14501 -0.158614,-0.30135 -0.300648,-0.43729 -0.189388,-0.14071 -0.581185,-0.46222 -0.804183,-0.25649 z m 7.233841,0.25603 c -0.14204,0.1364 -0.25094,0.29274 -0.30066,0.43775 -0.0828,-0.0725 -0.17044,-0.12688 -0.26987,-0.18126 l -0.26514,0.25604 c 0.31722,0.22431 0.60129,0.4962 0.83567,0.79982 l 0.2675,-0.25377 c -0.0521,-0.0952 -0.1231,-0.18127 -0.18938,-0.2583 0.14914,-0.0499 0.31248,-0.15181 0.45452,-0.28775 0.29592,-0.28323 0.41665,-0.6274 0.26751,-0.76879 -0.23437,-0.17832 -0.66285,0.12734 -0.80015,0.25626 z m -3.368713,0.17039 c -0.87117,0.0363 -1.661863,0.36932 -2.263159,0.89726 -0.07811,0.0702 -0.156243,0.14273 -0.217791,0.20845 -0.551593,0.5755 -0.899588,1.33228 -0.937463,2.16835 0,0.10197 -0.0051,0.2062 0.0026,0.29456 0.03554,0.83381 0.383506,1.59058 0.935099,2.16609 0.0734,0.0726 0.151506,0.14728 0.21779,0.20846 0.601296,0.52566 1.39199,0.85873 2.26316,0.89498 h 0.0051 c 0.09707,0.004 0.205962,0 0.30302,0 0.871179,-0.0363 1.661867,-0.36932 2.263157,-0.89725 0.0781,-0.0702 0.15624,-0.14274 0.2178,-0.20846 0.55158,-0.5755 0.89958,-1.33227 0.93745,-2.16609 v -0.005 c 0.005,-0.0952 0,-0.19713 0,-0.29003 -0.0379,-0.83381 -0.38587,-1.59058 -0.93745,-2.16609 -0.0734,-0.0748 -0.14914,-0.14954 -0.2178,-0.20845 -0.60129,-0.52793 -1.391978,-0.861 -2.263157,-0.89725 -0.106531,-0.005 -0.215426,0 -0.307748,0 z m 0.153879,0.24244 c 0.104158,0 0.189389,0.0816 0.189389,0.18126 0,0.0997 -0.08522,0.18127 -0.189389,0.18127 -0.104159,0 -0.189389,-0.0816 -0.189389,-0.18127 0,-0.0997 0.08522,-0.18126 0.189389,-0.18126 z m 0.163342,0.64348 c 0.608405,0.0363 1.162362,0.26737 1.593212,0.63216 0.0805,0.0702 0.15861,0.14274 0.22963,0.21978 0.38114,0.41238 0.62261,0.94257 0.66049,1.52714 0.01,0.10423 0,0.20845 0,0.31041 -0.0379,0.58231 -0.27935,1.1125 -0.66049,1.52488 -0.0734,0.0771 -0.14914,0.15181 -0.22963,0.21979 -0.43085,0.36478 -0.984807,0.5959 -1.595576,0.63215 -0.108895,0.003 -0.21779,0.009 -0.324321,0 -0.608405,-0.0363 -1.162362,-0.26737 -1.590843,-0.63215 h -0.0026 c -0.08051,-0.068 -0.156243,-0.14275 -0.227263,-0.21979 -0.381134,-0.41011 -0.62497,-0.9403 -0.662844,-1.52488 -0.0026,-0.10422 -0.0095,-0.20618 0,-0.30814 0.01182,-0.58457 0.314848,-1.14423 0.66048,-1.52941 0.0734,-0.0771 0.149142,-0.1518 0.229627,-0.21978 0.430853,-0.36479 0.98481,-0.5959 1.595579,-0.63216 0.108895,-0.009 0.217799,0 0.324321,0 z m -2.244222,0.28549 c 0.0734,0.0702 0.0734,0.1858 0,0.25604 -0.0734,0.0702 -0.194117,0.0702 -0.26751,0 -0.0734,-0.0702 -0.0734,-0.1858 0,-0.25604 0.08282,-0.0657 0.194125,-0.0657 0.26751,0 z m 4.429264,0 c 0.0734,0.0702 0.0734,0.1858 0,0.25604 -0.0734,0.0702 -0.19412,0.0702 -0.26751,0 -0.0734,-0.0702 -0.0734,-0.1858 0,-0.25604 0.0828,-0.0657 0.19412,-0.0657 0.26751,0 z m -2.727154,0.14728 v 0.19713 c 0.05918,0.0725 0.104159,0.12462 0.184653,0.15407 -0.01662,0.28095 -0.03786,0.56871 -0.06629,0.8542 0.175179,-0.043 0.359832,-0.0453 0.523175,0.003 -0.02844,-0.28776 -0.05207,-0.57552 -0.06869,-0.85874 0.187016,-0.0476 0.184643,-0.19486 0.184643,-0.34893 -0.260401,-0.0385 -0.516074,-0.0363 -0.757538,0 z m -0.906689,0.358 c -0.205953,0.14048 -0.388242,0.31494 -0.535011,0.51207 l 0.146769,0.14048 c 0.0947,0.0113 0.165716,0.0181 0.243837,-0.0159 0.196489,0.21071 0.392978,0.42823 0.584731,0.65028 0.08759,-0.14728 0.215427,-0.26963 0.371669,-0.35346 -0.234364,-0.18353 -0.461627,-0.37159 -0.68179,-0.55965 0.04257,-0.0702 0.03075,-0.15181 0.01662,-0.23338 z m 2.570913,0 -0.14678,0.14048 c -0.0165,0.0906 -0.0189,0.15634 0.0142,0.23337 -0.217793,0.18806 -0.447421,0.37612 -0.67942,0.55965 0.153878,0.0838 0.281711,0.20618 0.369305,0.35573 0.191753,-0.22432 0.390605,-0.44183 0.584735,-0.65254 0.0757,0.0385 0.1586,0.0294 0.24383,0.0158 l 0.14677,-0.14048 c -0.14677,-0.19713 -0.32669,-0.37159 -0.53264,-0.51207 z m 2.67034,1.17594 c 0.0592,0.38745 0.0545,0.77263 0,1.13289 h 0.37641 c 0.0355,-0.10196 0.0474,-0.21298 0.0545,-0.31041 0.14203,0.068 0.33616,0.1065 0.53738,0.1065 0.41901,0 0.75754,-0.16314 0.75754,-0.36254 0,-0.19939 -0.33853,-0.36252 -0.75754,-0.36252 -0.20122,0 -0.39535,0.0385 -0.53738,0.1065 -0.003,-0.1065 -0.0236,-0.20393 -0.0545,-0.31042 z m -8.287286,0.003 c -0.03195,0.10196 -0.04993,0.20845 -0.05678,0.30815 -0.142513,-0.068 -0.334977,-0.10422 -0.535012,-0.10422 -0.418305,0 -0.757547,0.16313 -0.757547,0.36252 0,0.19939 0.339242,0.36253 0.757547,0.36253 0.200746,0 0.39321,-0.0385 0.535012,-0.10649 0.0034,0.10649 0.02655,0.20391 0.05678,0.31041 h 0.374033 c -0.05636,-0.38745 -0.05918,-0.77263 0,-1.1329 z m 4.331492,0.043 c -0.305385,0 -0.544485,0.23111 -0.544485,0.52113 0,0.29002 0.2391,0.52113 0.544485,0.52113 0.30302,0 0.544484,-0.23111 0.544484,-0.52113 0,-0.29002 -0.241464,-0.52113 -0.544484,-0.52113 z m 1.988554,0.1586 c -0.0757,0.0566 -0.1302,0.0997 -0.16098,0.17673 -0.29354,-0.0158 -0.5942,-0.0363 -0.892484,-0.0635 0.04497,0.16992 0.04497,0.34439 0,0.50074 0.298284,-0.0272 0.596564,-0.0499 0.892484,-0.0657 0.0236,0.0793 0.09,0.12915 0.16098,0.17673 h 0.20596 c 0.0403,-0.24923 0.0379,-0.49394 0,-0.72505 z m -4.183065,0.003 c -0.04026,0.24697 -0.03554,0.49394 0,0.72505 h 0.205962 c 0.0734,-0.0566 0.132568,-0.0974 0.158606,-0.17673 0.29592,0.0136 0.594196,0.0363 0.894852,0.0635 -0.04736,-0.16993 -0.04736,-0.34439 -0.0026,-0.50073 -0.298284,0.0272 -0.598932,0.0476 -0.89248,0.0635 -0.02133,-0.0793 -0.08996,-0.12915 -0.158606,-0.17446 z m 5.324115,0.17899 c 0.10416,0 0.18939,0.0816 0.18939,0.18127 0,0.0997 -0.0852,0.18126 -0.18939,0.18126 -0.10416,0 -0.18938,-0.0815 -0.18938,-0.18126 0,-0.0997 0.0852,-0.18127 0.18938,-0.18127 z m -6.259206,0.003 c 0.104159,0 0.18938,0.0816 0.18938,0.18126 0,0.0997 -0.08522,0.18127 -0.18938,0.18127 -0.104167,0 -0.189389,-0.0816 -0.189389,-0.18127 0,-0.0997 0.08522,-0.18126 0.189389,-0.18126 z m 3.974734,0.63442 c -0.08759,0.14728 -0.215426,0.26963 -0.371669,0.35346 0.234364,0.18353 0.461627,0.37159 0.681791,0.55966 -0.0426,0.0702 -0.0307,0.1518 -0.0166,0.23337 l 0.14678,0.14048 c 0.20595,-0.14048 0.38824,-0.31495 0.53501,-0.51207 l -0.14677,-0.14048 c -0.0947,-0.0113 -0.16572,-0.0181 -0.24384,0.0159 -0.19649,-0.21072 -0.392976,-0.42824 -0.584729,-0.65029 z m -1.690265,0 c -0.191753,0.22205 -0.388242,0.43956 -0.584731,0.65029 -0.0734,-0.0408 -0.158615,-0.0294 -0.241464,-0.0159 l -0.149142,0.14048 c 0.146769,0.19939 0.329058,0.37385 0.537384,0.51206 l 0.146769,-0.14047 c 0.01182,-0.0906 0.01893,-0.15861 -0.01662,-0.23338 0.220163,-0.18806 0.447426,-0.37612 0.679426,-0.55965 -0.153878,-0.0838 -0.284083,-0.20618 -0.371669,-0.35346 z m 0.582359,0.4373 c 0.02844,0.28775 0.05208,0.57551 0.06869,0.85873 -0.08282,0.0181 -0.137305,0.0862 -0.184652,0.15181 v 0.19712 c 0.260401,0.0385 0.516074,0.0363 0.757538,0 v -0.19712 c -0.05918,-0.0726 -0.104159,-0.12461 -0.184644,-0.15408 0.01653,-0.28095 0.03786,-0.56871 0.06629,-0.8542 -0.182288,0.0294 -0.374041,0.0385 -0.523183,-0.003 z m -1.815733,1.09891 c 0.0734,0.0702 0.0734,0.18579 0,0.25603 -0.0734,0.0702 -0.194126,0.0702 -0.26751,0 -0.0734,-0.0702 -0.0734,-0.18579 0,-0.25603 0.08282,-0.068 0.194116,-0.068 0.26751,0 z m 4.426891,0 c 0.0734,0.0702 0.0734,0.18579 0,0.25603 -0.0734,0.0702 -0.19412,0.0702 -0.26751,0 -0.0734,-0.0702 -0.0734,-0.18579 0,-0.25603 0.0828,-0.068 0.19649,-0.068 0.26751,0 z m 0.86645,0.28548 c -0.23438,0.30362 -0.51845,0.57552 -0.83567,0.79983 l 0.26514,0.25604 c 0.0994,-0.0499 0.18939,-0.11783 0.26987,-0.18127 0.0498,0.14502 0.15862,0.30135 0.30066,0.4373 0.29591,0.28322 0.65338,0.39651 0.80252,0.25604 0.14677,-0.14275 0.0284,-0.48489 -0.26751,-0.76811 -0.14204,-0.13594 -0.30539,-0.24017 -0.45689,-0.28776 0.0757,-0.0793 0.13257,-0.16313 0.18938,-0.25829 z m -6.429658,0 -0.265146,0.25378 c 0.05447,0.0929 0.120732,0.1858 0.189389,0.25829 -0.151506,0.0476 -0.314857,0.15182 -0.458552,0.28776 -0.295209,0.28322 -0.41475,0.62536 -0.26751,0.76811 0.14772,0.14274 0.508263,0.0272 0.804183,-0.25604 0.142042,-0.13595 0.250937,-0.29228 0.300648,-0.4373 0.08282,0.0725 0.170452,0.12689 0.269874,0.18127 l 0.265147,-0.25377 c -0.319594,-0.22658 -0.601305,-0.49621 -0.838033,-0.80209 z m 3.214824,0.537 c 0.104158,0 0.189389,0.0816 0.189389,0.18127 0,0.0997 -0.08522,0.18126 -0.189389,0.18126 -0.104159,0 -0.189389,-0.0816 -0.189389,-0.18126 0,-0.0997 0.08522,-0.18127 0.189389,-0.18127 z m -0.591832,0.97429 v 0.358 c 0.106531,0.0317 0.222527,0.0476 0.324322,0.0544 -0.071,0.13594 -0.11126,0.31948 -0.11126,0.51207 0,0.40104 0.170444,0.72505 0.37877,0.72505 0.208326,0 0.378769,-0.32401 0.378769,-0.72505 0,-0.19259 -0.04026,-0.37613 -0.111259,-0.51207 0.111259,-0.004 0.213054,-0.0249 0.324321,-0.0544 v -0.36026 c -0.404815,0.0566 -0.807258,0.0544 -1.183663,0.003 z"
         id="path8472"
         style="fill:#ffffff;stroke-width:0.02316" /></g></g></svg>
